
<svg display="none" xmlns="http://www.w3.org/2000/svg">
  <symbol viewBox="0 0 28 28" id="close">
    <path d="M21 7L7 21" stroke="#111111" stroke-width="2" stroke-linecap="round" stroke-linejoin="round"/>
    <path d="M7 7L21 21" stroke="#111111" stroke-width="2" stroke-linecap="round" stroke-linejoin="round"/>
  </symbol>

  <symbol viewBox="0 0 32 32" id="coin">
    <path d="M15.9998 2.66675C8.6665 2.66675 2.6665 8.66675 2.6665 16.0001C2.6665 23.3334 8.6665 29.3334 15.9998 29.3334C23.3332 29.3334 29.3332 23.3334 29.3332 16.0001C29.3332 8.66675 23.3332 2.66675 15.9998 2.66675ZM15.9998 26.6667C10.1332 26.6667 5.33317 21.8667 5.33317 16.0001C5.33317 10.1334 10.1332 5.33341 15.9998 5.33341C21.8665 5.33341 26.6665 10.1334 26.6665 16.0001C26.6665 21.8667 21.8665 26.6667 15.9998 26.6667Z" fill="#FD9222"/>
    <path d="M17.7332 14.6667H14.2666C13.5999 14.6667 13.0666 14.1333 13.0666 13.4667C13.0666 12.8 13.5999 12.2667 14.2666 12.2667H19.1999C19.9999 12.2667 20.5332 11.7333 20.5332 10.9333C20.5332 10.1333 19.9999 9.59998 19.1999 9.59998H17.3332V8.39998C17.3332 7.59998 16.7999 7.06665 15.9999 7.06665C15.1999 7.06665 14.6666 7.59998 14.6666 8.39998V9.59998H14.2666C12.1332 9.59998 10.3999 11.3333 10.3999 13.4667C10.3999 15.6 12.1332 17.3333 14.2666 17.3333H17.5999C18.2666 17.3333 18.7999 17.8666 18.7999 18.5333C18.7999 19.2 18.2666 19.7333 17.5999 19.7333H12.6666C11.8666 19.7333 11.3332 20.2667 11.3332 21.0667C11.3332 21.8667 11.8666 22.4 12.6666 22.4H14.6666V23.6C14.6666 24.4 15.1999 24.9333 15.9999 24.9333C16.7999 24.9333 17.3332 24.4 17.3332 23.6V22.4H17.7332C19.8666 22.4 21.5999 20.6667 21.5999 18.5333C21.5999 16.4 19.8666 14.6667 17.7332 14.6667Z" fill="#FD9222"/>
  </symbol>

  <symbol viewBox="0 0 24 24" id="icon">
    <path d="M2.95799 15.0568L11.0406 1.9886L11.5206 1.48303L17.6974 5.6014L17.7397 8.08665L19.2472 10.5463L12.5874 21.1038L2.95799 15.0568Z" fill="#FCF1E0"/>
    <path d="M16.2259 17.9097L5.5868 11.2616M8.52069 6.44905L19.1598 13.0971M7.97248 19.3982L16.7742 4.96051M20.3823 11.0919C18.1025 9.6673 17.2071 8.55395 18.674 6.14767L11.4546 1.63647L2.6529 16.0742L13.2921 22.7223L20.3823 11.0919Z" stroke="#FD9222" stroke-width="2" stroke-linecap="round" stroke-linejoin="round"/>
  </symbol>

  <symbol viewBox="0 0 24 24" id="instagram">
    <path d="M17 2H7C4.23858 2 2 4.23858 2 7V17C2 19.7614 4.23858 22 7 22H17C19.7614 22 22 19.7614 22 17V7C22 4.23858 19.7614 2 17 2Z" stroke="#111111" stroke-width="2" stroke-linecap="round" stroke-linejoin="round"/>
    <path d="M16.0002 11.3701C16.1236 12.2023 15.9815 13.0523 15.594 13.7991C15.2065 14.5459 14.5933 15.1515 13.8418 15.5297C13.0903 15.908 12.2386 16.0397 11.408 15.906C10.5773 15.7723 9.80996 15.3801 9.21503 14.7852C8.62011 14.1903 8.22793 13.4229 8.09426 12.5923C7.9606 11.7616 8.09226 10.91 8.47052 10.1584C8.84878 9.40691 9.45438 8.7938 10.2012 8.4063C10.948 8.0188 11.7979 7.87665 12.6302 8.00006C13.4791 8.12594 14.265 8.52152 14.8719 9.12836C15.4787 9.73521 15.8743 10.5211 16.0002 11.3701Z" stroke="#111111" stroke-width="2" stroke-linecap="round" stroke-linejoin="round"/>
    <path d="M16.0002 11.3701C16.1236 12.2023 15.9815 13.0523 15.594 13.7991C15.2065 14.5459 14.5933 15.1515 13.8418 15.5297C13.0903 15.908 12.2386 16.0397 11.408 15.906C10.5773 15.7723 9.80996 15.3801 9.21503 14.7852C8.62011 14.1903 8.22793 13.4229 8.09426 12.5923C7.9606 11.7616 8.09226 10.91 8.47052 10.1584C8.84878 9.40691 9.45438 8.7938 10.2012 8.4063C10.948 8.0188 11.7979 7.87665 12.6302 8.00006C13.4791 8.12594 14.265 8.52152 14.8719 9.12836C15.4787 9.73521 15.8743 10.5211 16.0002 11.3701Z" stroke="#111111" stroke-width="2" stroke-linecap="round" stroke-linejoin="round"/>
    <path d="M17.5 6.5H17.51" stroke="#111111" stroke-width="2" stroke-linecap="round" stroke-linejoin="round"/>
    <path d="M17.5 6.5H17.51" stroke="#111111" stroke-width="2" stroke-linecap="round" stroke-linejoin="round"/>
  </symbol>

  <symbol viewBox="0 0 44 44" id="play">
    <path d="M15 33V12L35 22.5L15 33Z" fill="#F5F4F4"/>
    <circle cx="22" cy="22" r="21.5" stroke="white"/>
  </symbol>

  <symbol viewBox="0 0 28 28" id="menu">
    <path d="M3.5 14H24.5M3.5 7H24.5M3.5 21H24.5" stroke="#111111" stroke-width="2" stroke-linecap="round" stroke-linejoin="round"/>
  </symbol>

  <symbol viewBox="0 0 32 32" id="product">
    <path d="M13.822 2.41301L21.349 9.94901L21.429 9.86901C21.5867 9.71469 21.7978 9.6272 22.0184 9.62477C22.239 9.62235 22.452 9.70519 22.613 9.85601L22.619 9.86201L23.486 10.729C23.791 11.034 23.801 11.499 23.569 11.823L23.565 11.83L23.422 12.022L29.582 18.182C30.132 18.732 30.132 19.612 29.582 20.162L20.152 29.592C19.602 30.142 18.722 30.142 18.172 29.592L13.725 25.145C13.6512 25.2381 13.5584 25.3145 13.4529 25.3692C13.3474 25.4239 13.2316 25.4556 13.1129 25.4623C12.9943 25.469 12.8756 25.4505 12.7646 25.4081C12.6536 25.3656 12.5529 25.3002 12.469 25.216L9.86901 22.616C9.71469 22.4584 9.6272 22.2472 9.62477 22.0266C9.62235 21.806 9.70519 21.593 9.85601 21.432L9.86201 21.425L9.93901 21.349L2.41201 13.822C1.86201 13.272 1.86201 12.392 2.41201 11.842L11.842 2.41201C12.392 1.86201 13.272 1.86201 13.822 2.41201V2.41301ZM20.404 10.893L18.648 9.13801C18.5928 9.0811 18.5268 9.03585 18.4538 9.00495C18.3808 8.97405 18.3023 8.95813 18.223 8.95813C18.1437 8.95813 18.0653 8.97405 17.9923 9.00495C17.9193 9.03585 17.8532 9.0811 17.798 9.13801L14.218 12.718C14.1613 12.7743 14.1163 12.8413 14.0856 12.9151C14.0548 12.9889 14.039 13.0681 14.039 13.148C14.039 13.2279 14.0548 13.3071 14.0856 13.3809C14.1163 13.4547 14.1613 13.5217 14.218 13.578L15.967 15.327L16.577 14.717L15.012 13.152L18.222 9.93201L19.791 11.506L20.404 10.893ZM15.328 15.965L13.574 14.211C13.5188 14.1541 13.4528 14.1088 13.3798 14.0779C13.3068 14.047 13.2283 14.0311 13.149 14.0311C13.0697 14.0311 12.9913 14.047 12.9183 14.0779C12.8453 14.1088 12.7792 14.1541 12.724 14.211L9.14401 17.791L9.13901 17.796L9.13401 17.801C8.89401 18.031 8.89401 18.411 9.13401 18.651L10.886 20.403L11.502 19.787L9.93201 18.223L13.152 15.013L14.716 16.576L15.328 15.965ZM8.82201 8.19301L12.402 11.773C12.642 12.013 13.022 12.013 13.252 11.763L16.832 8.18301C16.8889 8.12884 16.9342 8.06368 16.9651 7.99148C16.9961 7.91929 17.012 7.84156 17.012 7.76301H17.022C17.022 7.61301 16.962 7.45301 16.842 7.33301L13.262 3.75301C13.2058 3.69617 13.1388 3.65105 13.065 3.62025C12.9912 3.58946 12.912 3.5736 12.832 3.5736C12.752 3.5736 12.6729 3.58946 12.599 3.62025C12.5252 3.65105 12.4583 3.69617 12.402 3.75301L8.82201 7.34301C8.58201 7.57301 8.58201 7.95301 8.82201 8.19301ZM3.75201 13.263L7.33201 16.843C7.57201 17.083 7.95201 17.083 8.18201 16.843L11.762 13.263C11.8201 13.2077 11.8661 13.1409 11.8971 13.0669C11.9281 12.9929 11.9434 12.9132 11.942 12.833H11.952C11.952 12.673 11.892 12.523 11.772 12.403L8.19201 8.82301C8.13683 8.7661 8.07077 8.72085 7.99776 8.68995C7.92476 8.65905 7.84629 8.64313 7.76701 8.64313C7.68774 8.64313 7.60927 8.65905 7.53626 8.68995C7.46326 8.72085 7.3972 8.7661 7.34201 8.82301L3.75201 12.413C3.51201 12.643 3.51201 13.023 3.75201 13.263ZM10.685 22.017L13.047 24.38L22.683 11.34L22.028 10.685L10.685 22.017Z" fill="black"/>
    <path d="M13.822 2.41301L21.349 9.94901L21.429 9.86901C21.5867 9.71469 21.7978 9.6272 22.0184 9.62477C22.239 9.62235 22.452 9.70519 22.613 9.85601L22.619 9.86201L23.486 10.729C23.791 11.034 23.801 11.499 23.569 11.823L23.565 11.83L23.422 12.022L29.582 18.182C30.132 18.732 30.132 19.612 29.582 20.162L20.152 29.592C19.602 30.142 18.722 30.142 18.172 29.592L13.725 25.145C13.6512 25.2381 13.5584 25.3145 13.4529 25.3692C13.3474 25.4239 13.2316 25.4556 13.1129 25.4623C12.9943 25.469 12.8756 25.4505 12.7646 25.4081C12.6536 25.3656 12.5529 25.3002 12.469 25.216L9.86901 22.616C9.71469 22.4584 9.6272 22.2472 9.62477 22.0266C9.62235 21.806 9.70519 21.593 9.85601 21.432L9.86201 21.425L9.93901 21.349L2.41201 13.822C1.86201 13.272 1.86201 12.392 2.41201 11.842L11.842 2.41201C12.392 1.86201 13.272 1.86201 13.822 2.41201V2.41301ZM20.404 10.893L18.648 9.13801C18.5928 9.0811 18.5268 9.03585 18.4538 9.00495C18.3808 8.97405 18.3023 8.95813 18.223 8.95813C18.1437 8.95813 18.0653 8.97405 17.9923 9.00495C17.9193 9.03585 17.8532 9.0811 17.798 9.13801L14.218 12.718C14.1613 12.7743 14.1163 12.8413 14.0856 12.9151C14.0548 12.9889 14.039 13.0681 14.039 13.148C14.039 13.2279 14.0548 13.3071 14.0856 13.3809C14.1163 13.4547 14.1613 13.5217 14.218 13.578L15.967 15.327L16.577 14.717L15.012 13.152L18.222 9.93201L19.791 11.506L20.404 10.893ZM15.328 15.965L13.574 14.211C13.5188 14.1541 13.4528 14.1088 13.3798 14.0779C13.3068 14.047 13.2283 14.0311 13.149 14.0311C13.0697 14.0311 12.9913 14.047 12.9183 14.0779C12.8453 14.1088 12.7792 14.1541 12.724 14.211L9.14401 17.791L9.13901 17.796L9.13401 17.801C8.89401 18.031 8.89401 18.411 9.13401 18.651L10.886 20.403L11.502 19.787L9.93201 18.223L13.152 15.013L14.716 16.576L15.328 15.965ZM8.82201 8.19301L12.402 11.773C12.642 12.013 13.022 12.013 13.252 11.763L16.832 8.18301C16.8889 8.12884 16.9342 8.06368 16.9651 7.99148C16.9961 7.91929 17.012 7.84156 17.012 7.76301H17.022C17.022 7.61301 16.962 7.45301 16.842 7.33301L13.262 3.75301C13.2058 3.69617 13.1388 3.65105 13.065 3.62025C12.9912 3.58946 12.912 3.5736 12.832 3.5736C12.752 3.5736 12.6729 3.58946 12.599 3.62025C12.5252 3.65105 12.4583 3.69617 12.402 3.75301L8.82201 7.34301C8.58201 7.57301 8.58201 7.95301 8.82201 8.19301ZM3.75201 13.263L7.33201 16.843C7.57201 17.083 7.95201 17.083 8.18201 16.843L11.762 13.263C11.8201 13.2077 11.8661 13.1409 11.8971 13.0669C11.9281 12.9929 11.9434 12.9132 11.942 12.833H11.952C11.952 12.673 11.892 12.523 11.772 12.403L8.19201 8.82301C8.13683 8.7661 8.07077 8.72085 7.99776 8.68995C7.92476 8.65905 7.84629 8.64313 7.76701 8.64313C7.68774 8.64313 7.60927 8.65905 7.53626 8.68995C7.46326 8.72085 7.3972 8.7661 7.34201 8.82301L3.75201 12.413C3.51201 12.643 3.51201 13.023 3.75201 13.263ZM10.685 22.017L13.047 24.38L22.683 11.34L22.028 10.685L10.685 22.017Z" fill="#FD9222"/>
  </symbol>

  <symbol viewBox="0 0 32 32" id="spoon">
    <path d="M15.4514 14.106C14.6688 13.156 14.2748 11.99 14.2748 10.8241C14.2748 6.50028 19.4559 2.18188 24.6369 2.18188C27.4973 2.18188 29.818 4.50302 29.818 7.36396C29.818 12.546 25.5005 17.7281 21.1721 17.7281C20.0064 17.7281 18.8406 17.334 17.8908 16.5513L5.13242 29.3122C4.4578 29.9869 3.36222 29.9869 2.6876 29.3122C2.01299 28.6374 2.01299 27.5416 2.6876 26.8669L15.4514 14.106Z" fill="#FD9222"/>
  </symbol>

  <symbol viewBox="0 0 28 28" id="staple">
    <ellipse cx="14" cy="14" rx="14" ry="14" transform="matrix(0 1 1 0 0 0)" fill="white"/>
    <path d="M14.4731 14.9336C14.4111 14.9961 14.3373 15.0457 14.2561 15.0795C14.1749 15.1134 14.0877 15.1308 13.9997 15.1308C13.9117 15.1308 13.8246 15.1134 13.7433 15.0795C13.6621 15.0457 13.5884 14.9961 13.5264 14.9336L10.473 11.8736C10.4111 11.8111 10.3373 11.7615 10.2561 11.7277C10.1749 11.6938 10.0877 11.6764 9.99972 11.6764C9.91171 11.6764 9.82457 11.6938 9.74333 11.7277C9.66209 11.7615 9.58836 11.8111 9.52638 11.8736C9.40221 11.9985 9.33252 12.1675 9.33252 12.3436C9.33252 12.5197 9.40221 12.6887 9.52638 12.8136L12.5864 15.8736C12.9614 16.2481 13.4697 16.4585 13.9997 16.4585C14.5297 16.4585 15.0381 16.2481 15.4131 15.8736L18.4731 12.8136C18.5962 12.6894 18.6657 12.5218 18.6664 12.3469C18.6669 12.2592 18.6501 12.1722 18.6169 12.091C18.5837 12.0098 18.5348 11.9359 18.4731 11.8736C18.4111 11.8111 18.3373 11.7615 18.2561 11.7277C18.1749 11.6938 18.0877 11.6764 17.9997 11.6764C17.9117 11.6764 17.8246 11.6938 17.7433 11.7277C17.6621 11.7615 17.5884 11.8111 17.5264 11.8736L14.4731 14.9336Z" fill="#FD9222"/>
  </symbol>

  <symbol viewBox="0 0 24 24" id="twitter">
    <path d="M23 3.00005C22.0424 3.67552 20.9821 4.19216 19.86 4.53005C19.2577 3.83756 18.4573 3.34674 17.567 3.12397C16.6767 2.90121 15.7395 2.95724 14.8821 3.2845C14.0247 3.61176 13.2884 4.19445 12.773 4.95376C12.2575 5.71308 11.9877 6.61238 12 7.53005V8.53005C10.2426 8.57561 8.50127 8.18586 6.93101 7.39549C5.36074 6.60513 3.51032 4.72313 2.5 3.2845C2.5 3.2845 -1 13 8 17C5.94053 18.398 3.48716 19.099 1 19C10 24 21 19 21 7.50005C20.9991 7.2215 20.9723 6.94364 20.92 6.67005C21.9406 5.66354 22.6608 4.39276 23 3.00005Z" stroke="#111111" stroke-width="2" stroke-linecap="round" stroke-linejoin="round"/>
  </symbol>
</svg>
